# xmcd
#
# Track frame offsets: 
#        150
#        3287
#        33160
#        56607
#        71194
#        107169
#        123148
#        152309
#        178356
#        183748
#        211886
#        238023
#        280484
#        317813
#        330333
#
# Disc length: 4596 seconds
#
# Revision: 4
# Processed by: cddbd v1.5.2PL0 Copyright (c) Steve Scherf et al.
# Submitted via: ExactAudioCopyFreeDBPlugin 1.0
#
DISCID=d111f20f
DTITLE=Joe Bonamassa - Muddy Wolf At Red Rocks
DYEAR=2015
DGENRE=Blues
TTITLE0=Howlin' Wolf Talking
TTITLE1=How Many More Years
TTITLE2=Shake For Me
TTITLE3=Hidden Charms
TTITLE4=Spoonful
TTITLE5=Killing Floor
TTITLE6=Evil (Is Going On)
TTITLE7=All Night Boogie (All Night Long)
TTITLE8=Hey Baby (New Rising Sun)
TTITLE9=Oh Beautiful!
TTITLE10=Love Ain't A Love Song
TTITLE11=Sloe Gin
TTITLE12=The Ballad Of John Henry
TTITLE13=Mississippi Heartbeat (Opening Title)
TTITLE14=Muddy Wolf (Credits)
EXTD=
EXTT0=
EXTT1=
EXTT2=
EXTT3=
EXTT4=
EXTT5=
EXTT6=
EXTT7=
EXTT8=
EXTT9=
EXTT10=
EXTT11=
EXTT12=
EXTT13=
EXTT14=
PLAYORDER=
